<?xml version="1.0" encoding="UTF-8"?>
<svg version="1.1" xmlns="http://www.w3.org/2000/svg" width="512" height="512">
<path d="M0 0 C1.25554687 -0.01933594 2.51109375 -0.03867188 3.8046875 -0.05859375 C14.67504629 0.71971666 24.08613484 6.32433559 33.25 11.75 C34.47300598 12.46315287 35.6966527 13.17520794 36.92089844 13.88623047 C39.43187637 15.34638671 41.93942374 16.81217829 44.44433594 18.28271484 C48.99605356 20.9521421 53.57202714 23.57900604 58.14746094 26.20751953 C68.44141525 32.12381793 78.69748564 38.1041062 88.94628906 44.09814453 C96.64524834 48.59277427 104.37968246 53.02349899 112.125 57.4375 C121.84102354 62.97459225 131.52396207 68.56492834 141.17651367 74.2121582 C148.58166441 78.54296172 156.00570753 82.8400953 163.4375 87.125 C165.06776123 88.0679895 165.06776123 88.0679895 166.73095703 89.0300293 C171.68139192 91.89112141 176.63897135 94.7339793 181.63671875 97.51171875 C195.7696732 105.40942708 207.47185465 113.1219738 212.546875 129.26171875 C213.94015081 134.50533108 214.27140181 139.44630319 214.26544189 144.86123657 C214.26989858 146.13007126 214.26989858 146.13007126 214.2744453 147.42453897 C214.28311388 150.25780816 214.284639 153.09103501 214.28613281 155.92431641 C214.29076235 157.95644216 214.29578719 159.98856704 214.30117798 162.02069092 C214.31429232 167.54161818 214.32074525 173.06253328 214.32518864 178.58347368 C214.32812137 182.03479074 214.3322266 185.4861045 214.33669281 188.93741989 C214.35036619 199.74161979 214.36003321 210.5458121 214.3638947 221.35002005 C214.36837295 233.81065942 214.38591076 246.27118897 214.4148953 258.73179495 C214.43653467 268.37020676 214.44660022 278.00858772 214.44793582 287.64702356 C214.44898237 293.40023992 214.45485824 299.15335301 214.47275543 304.90654373 C214.4892747 310.32217794 214.49137286 315.73763169 214.48261642 321.15328217 C214.48184807 323.13534149 214.48616198 325.11741066 214.49607468 327.09944534 C214.575296 343.9339878 213.02365275 358.12334732 201.015625 370.88671875 C195.80824331 375.48188124 189.82921391 378.64154451 183.765625 381.97265625 C179.80373748 384.17044888 175.88995959 386.44964073 171.97045898 388.72192383 C168.63085659 390.65783523 165.2867858 392.58580985 161.94140625 394.51171875 C155.33384965 398.31669818 148.72912307 402.1265651 142.125 405.9375 C139.95834689 407.1875235 137.79168021 408.43752347 135.625 409.6875 C134.5525 410.30625 133.48 410.925 132.375 411.5625 C96.625 432.1875 96.625 432.1875 93.37451172 434.06274414 C91.20942929 435.31185518 89.04439018 436.56104129 86.87939453 437.81030273 C81.43884294 440.94952309 75.99752784 444.08740563 70.5546875 447.22265625 C68.3697714 448.48173567 66.18487548 449.7408501 64 451 C62.39874268 451.92220337 62.39874268 451.92220337 60.76513672 452.86303711 C55.35696034 455.98149779 49.95922862 459.11627333 44.578125 462.28125 C43.51480957 462.90572021 42.45149414 463.53019043 41.35595703 464.17358398 C39.36532967 465.34414547 37.37654701 466.51785309 35.39013672 467.69555664 C13.29373685 480.68457725 13.29373685 480.68457725 0.4375 480.8125 C-0.84511719 480.84085937 -2.12773437 480.86921875 -3.44921875 480.8984375 C-13.99320763 480.26830396 -23.15352361 474.93727615 -32 469.625 C-33.70939841 468.61866061 -35.41880759 467.612339 -37.12884521 466.60708618 C-38.88771134 465.57133395 -40.64373532 464.53089024 -42.39941406 463.48974609 C-47.86254051 460.25609789 -53.37144447 457.10164792 -58.875 453.9375 C-61.04187281 452.68785738 -63.20853906 451.43785653 -65.375 450.1875 C-66.4475 449.56875 -67.52 448.95 -68.625 448.3125 C-89.20833333 436.4375 -109.79166667 424.5625 -130.375 412.6875 C-131.9842334 411.7591333 -131.9842334 411.7591333 -133.62597656 410.81201172 C-135.78947476 409.56378966 -137.95288643 408.31541761 -140.11621094 407.06689453 C-145.58065017 403.91344744 -151.04663645 400.76273904 -156.515625 397.6171875 C-161.92600758 394.50483376 -167.32988197 391.38140304 -172.73095703 388.25292969 C-175.86593198 386.44273605 -179.00882722 384.64687177 -182.15234375 382.8515625 C-184.12272775 381.71411645 -186.09279492 380.57612134 -188.0625 379.4375 C-188.95291992 378.93395996 -189.84333984 378.43041992 -190.76074219 377.91162109 C-202.25779619 371.21867739 -209.44663739 362.34018901 -212.875 349.4375 C-213.9919242 344.96962951 -214.02047891 340.59018838 -214.01544189 336.01376343 C-214.01841302 335.16787364 -214.02138414 334.32198385 -214.0244453 333.45046103 C-214.03311388 330.61719184 -214.034639 327.78396499 -214.03613281 324.95068359 C-214.04076235 322.91855784 -214.04578719 320.88643296 -214.05117798 318.85430908 C-214.06429232 313.33338182 -214.07074525 307.81246672 -214.07518864 302.29152632 C-214.07812137 298.84020926 -214.0822266 295.3888955 -214.08669281 291.93758011 C-214.10036619 281.13338021 -214.11003321 270.3291879 -214.1138947 259.52497995 C-214.11837295 247.06434058 -214.13591076 234.60381103 -214.1648953 222.14320505 C-214.18653467 212.50479324 -214.19660022 202.86641228 -214.19793582 193.22797644 C-214.19898237 187.47476008 -214.20485824 181.72164699 -214.22275543 175.96845627 C-214.2392747 170.55282206 -214.24137286 165.13736831 -214.23261642 159.72171783 C-214.23184807 157.73965851 -214.23616198 155.75758934 -214.24607468 153.77555466 C-214.32764241 136.44240055 -212.51789198 123.11807635 -200.47070312 109.94116211 C-196.40566863 106.02026964 -191.87608871 103.43119455 -186.9375 100.75 C-184.80071116 99.54699949 -182.6639949 98.34387004 -180.52734375 97.140625 C-178.88161377 96.22700195 -178.88161377 96.22700195 -177.20263672 95.29492188 C-171.76521891 92.25986137 -166.3869364 89.12346982 -161 86 C-158.81552894 84.74014861 -156.63063094 83.48103721 -154.4453125 82.22265625 C-147.92013757 78.46394619 -141.3973655 74.7010825 -134.875 70.9375 C-132.70834417 69.68748121 -130.5416775 68.43748122 -128.375 67.1875 C-127.3025 66.56875 -126.23 65.95 -125.125 65.3125 C-115.375 59.6875 -115.375 59.6875 -112.12451172 57.81225586 C-109.95942929 56.56314482 -107.79439018 55.31395871 -105.62939453 54.06469727 C-100.18884294 50.92547691 -94.74752784 47.78759437 -89.3046875 44.65234375 C-79.83617812 39.19657145 -70.37085052 33.73634089 -60.93847656 28.21826172 C-56.99346571 25.91143334 -53.04376929 23.61269244 -49.09375 21.31445312 C-46.81554623 19.98596173 -44.53948457 18.65423678 -42.265625 17.31835938 C-39.12996114 15.47674534 -35.98801531 13.64624691 -32.84222412 11.82199097 C-31.63321639 11.11846887 -30.42630638 10.41132681 -29.22174072 9.70022583 C-19.69028527 4.07779841 -11.18292379 0.01143448 0 0 Z " fill="#CED3D4" transform="translate(255.875,15.5625)"/>
<path d="M0 0 C2.56857882 2.25288757 3.61591902 4.12598103 4.625 7.375 C4.86476563 8.12523437 5.10453125 8.87546875 5.3515625 9.6484375 C6.81359006 14.95048926 7.14648133 19.93656062 7.14044189 25.42373657 C7.14341302 26.26962636 7.14638414 27.11551615 7.1494453 27.98703897 C7.15811388 30.82030816 7.159639 33.65353501 7.16113281 36.48681641 C7.16576235 38.51894216 7.17078719 40.55106704 7.17617798 42.58319092 C7.18929232 48.10411818 7.19574525 53.62503328 7.20018864 59.14597368 C7.20312137 62.59729074 7.2072266 66.0486045 7.21169281 69.49991989 C7.22536619 80.30411979 7.23503321 91.1083121 7.2388947 101.91252005 C7.24337295 114.37315942 7.26091076 126.83368897 7.2898953 139.29429495 C7.31153467 148.93270676 7.32160022 158.57108772 7.32293582 168.20952356 C7.32398237 173.96273992 7.32985824 179.71585301 7.34775543 185.46904373 C7.3642747 190.88467794 7.36637286 196.30013169 7.35761642 201.71578217 C7.35684807 203.69784149 7.36116198 205.67991066 7.37107468 207.66194534 C7.450296 224.4964878 5.89865275 238.68584732 -6.109375 251.44921875 C-11.31675669 256.04438124 -17.29578609 259.20404451 -23.359375 262.53515625 C-27.32126252 264.73294888 -31.23504041 267.01214073 -35.15454102 269.28442383 C-38.49414341 271.22033523 -41.8382142 273.14830985 -45.18359375 275.07421875 C-51.79115035 278.87919818 -58.39587693 282.6890651 -65 286.5 C-67.16665311 287.7500235 -69.33331979 289.00002347 -71.5 290.25 C-72.5725 290.86875 -73.645 291.4875 -74.75 292.125 C-110.5 312.75 -110.5 312.75 -113.75048828 314.62524414 C-115.91557071 315.87435518 -118.08060982 317.12354129 -120.24560547 318.37280273 C-125.68615706 321.51202309 -131.12747216 324.64990563 -136.5703125 327.78515625 C-138.7552286 329.04423567 -140.94012452 330.3033501 -143.125 331.5625 C-144.72625732 332.48470337 -144.72625732 332.48470337 -146.35986328 333.42553711 C-151.76803966 336.54399779 -157.16577138 339.67877333 -162.546875 342.84375 C-163.61019043 343.46822021 -164.67350586 344.09269043 -165.76904297 344.73608398 C-167.75967033 345.90664547 -169.74845299 347.08035309 -171.73486328 348.25805664 C-193.64468523 361.13740036 -193.64468523 361.13740036 -207 361 C-207.20530266 330.52768329 -207.36458087 300.05549322 -207.45958797 269.58264711 C-207.47084436 265.98527271 -207.48249326 262.38789969 -207.49438477 258.79052734 C-207.49674556 258.07435366 -207.49910635 257.35817998 -207.50153869 256.62030406 C-207.54070347 245.0231958 -207.61166559 233.42648896 -207.69437516 221.82961886 C-207.77853215 209.93058435 -207.82852735 198.03176011 -207.84679645 186.13244021 C-207.85803899 179.44842212 -207.88619788 172.76513487 -207.95157051 166.08140182 C-208.01258628 159.79225907 -208.03151893 153.50440314 -208.01796913 147.21499252 C-208.02044845 144.90503448 -208.03839602 142.59503414 -208.07284927 140.28533173 C-208.11757277 137.13291938 -208.10689769 133.98537787 -208.08229065 130.83285522 C-208.12161401 129.45832941 -208.12161401 129.45832941 -208.16173178 128.0560354 C-208.10593132 125.41551555 -207.96005044 123.46407517 -207 121 C-204.27930661 118.41196338 -201.32329614 116.71086027 -198 115 C-197.01136963 114.39937744 -196.02273926 113.79875488 -195.00415039 113.17993164 C-194.12750732 112.67840576 -193.25086426 112.17687988 -192.34765625 111.66015625 C-191.33783691 111.08015869 -190.32801758 110.50016113 -189.28759766 109.90258789 C-188.22331543 109.29535889 -187.1590332 108.68812988 -186.0625 108.0625 C-184.33054521 107.06903183 -182.59859334 106.07555852 -180.86682129 105.08177185 C-179.08343878 104.05882612 -177.29931842 103.03717603 -175.51513672 102.015625 C-171.10813277 99.49067008 -166.7113729 96.94804788 -162.31420898 94.40600586 C-151.63869196 88.23507812 -140.94143474 82.10290885 -130.23205566 75.99102783 C-118.53932383 69.31714395 -106.87488668 62.59477718 -95.21777344 55.85888672 C-89.81329355 52.73675395 -84.40652588 49.61858796 -79 46.5 C-76.8333225 45.25001878 -74.66665583 44.00001879 -72.5 42.75 C-59.5 35.25 -59.5 35.25 -56.24682617 33.37329102 C-54.09059787 32.12923208 -51.93450951 30.88493058 -49.77856445 29.64038086 C-44.78551891 26.75845585 -39.79124394 23.87875466 -34.79173279 21.00805664 C-16.44766965 11.86211493 -16.44766965 11.86211493 0 0 Z " fill="#B3B9BA" transform="translate(463,135)"/>
<path d="M0 0 C1.25554687 -0.01933594 2.51109375 -0.03867188 3.8046875 -0.05859375 C14.67504629 0.71971666 24.08613484 6.32433559 33.25 11.75 C34.47300598 12.46315287 35.6966527 13.17520794 36.92089844 13.88623047 C39.43187637 15.34638671 41.93942374 16.81217829 44.44433594 18.28271484 C48.99605356 20.9521421 53.57202714 23.57900604 58.14746094 26.20751953 C68.44141525 32.12381793 78.69748564 38.1041062 88.94628906 44.09814453 C96.64524834 48.59277427 104.37968246 53.02349899 112.125 57.4375 C121.84102354 62.97459225 131.52396207 68.56492834 141.17651367 74.2121582 C148.58166441 78.54296172 156.00570753 82.8400953 163.4375 87.125 C165.06776123 88.0679895 165.06776123 88.0679895 166.73095703 89.0300293 C171.68139192 91.89112141 176.63897135 94.7339793 181.63671875 97.51171875 C201.0939138 108.3908707 201.0939138 108.3908707 207.125 117.4375 C206.99975586 119.45581055 206.99975586 119.45581055 206.125 121.4375 C204.40454102 122.84692383 204.40454102 122.84692383 202.12890625 124.14453125 C201.27393555 124.64065918 200.41896484 125.13678711 199.53808594 125.64794922 C198.59739258 126.17662598 197.65669922 126.70530273 196.6875 127.25 C195.21651855 128.09715576 195.21651855 128.09715576 193.71582031 128.96142578 C191.60870827 130.17349605 189.4983954 131.38001538 187.38525391 132.58154297 C184.1796238 134.40640444 180.98472668 136.24865486 177.79296875 138.09765625 C172.35007741 141.24974598 166.90041644 144.38987795 161.44824219 147.52587891 C155.96367108 150.68075635 150.48139647 153.83961057 145 157 C143.92121582 157.62189209 142.84243164 158.24378418 141.73095703 158.88452148 C134.5565743 163.02416945 127.39964534 167.19280742 120.25 171.375 C106.33803517 179.50813098 92.33490476 187.48061641 78.33349609 195.45825195 C65.52654325 202.75580526 52.72730726 210.06397435 40 217.5 C39.04335449 218.05647217 38.08670898 218.61294434 37.10107422 219.1862793 C32.33759206 221.95998782 27.58794516 224.75340668 22.86569214 227.59663391 C20.49305418 229.02171447 18.11265444 230.43349677 15.73101807 231.84347534 C14.03865069 232.85196781 12.35681581 233.87806875 10.67529297 234.90454102 C9.64549316 235.51225342 8.61569336 236.11996582 7.5546875 236.74609375 C6.19706299 237.56291626 6.19706299 237.56291626 4.81201172 238.39624023 C1.41375529 239.71311863 -0.39034573 239.4140069 -3.875 238.4375 C-6.31494141 237.29272461 -6.31494141 237.29272461 -8.7265625 235.83984375 C-9.6453418 235.29408691 -10.56412109 234.74833008 -11.51074219 234.18603516 C-12.49719727 233.58839355 -13.48365234 232.99075195 -14.5 232.375 C-16.66328425 231.08853416 -18.82737952 229.80343136 -20.9921875 228.51953125 C-22.12108398 227.84744629 -23.24998047 227.17536133 -24.41308594 226.48291016 C-30.10958355 223.1054456 -35.86991673 219.83871959 -41.625 216.5625 C-42.80264696 215.89083847 -43.98021816 215.21904409 -45.15771484 214.54711914 C-48.72941302 212.50929732 -52.30211333 210.47323714 -55.875 208.4375 C-70.2655452 200.23814466 -84.64272971 192.01989011 -98.93847656 183.65576172 C-106.23457524 179.38820947 -113.55032222 175.15579269 -120.875 170.9375 C-130.49606729 165.39635261 -140.09389991 159.81676821 -149.6796875 154.21484375 C-155.78057406 150.651926 -161.90087146 147.12809588 -168.04296875 143.63671875 C-174.47971859 139.95883291 -180.86773045 136.19549035 -187.26367188 132.44726562 C-189.2148391 131.30577515 -191.16806347 130.16779218 -193.12353516 129.03369141 C-194.90944518 127.99764174 -196.69069167 126.95349528 -198.46630859 125.89990234 C-199.25473145 125.44180176 -200.0431543 124.98370117 -200.85546875 124.51171875 C-201.88063599 123.90783325 -201.88063599 123.90783325 -202.92651367 123.29174805 C-205.13097939 122.16981797 -205.13097939 122.16981797 -208.875 122.4375 C-205.27426718 111.9549001 -196.27811627 105.82108628 -186.9375 100.75 C-184.80071116 99.54699949 -182.6639949 98.34387004 -180.52734375 97.140625 C-178.88161377 96.22700195 -178.88161377 96.22700195 -177.20263672 95.29492188 C-171.76521891 92.25986137 -166.3869364 89.12346982 -161 86 C-158.81552894 84.74014861 -156.63063094 83.48103721 -154.4453125 82.22265625 C-147.92013757 78.46394619 -141.3973655 74.7010825 -134.875 70.9375 C-132.70834417 69.68748121 -130.5416775 68.43748122 -128.375 67.1875 C-127.3025 66.56875 -126.23 65.95 -125.125 65.3125 C-115.375 59.6875 -115.375 59.6875 -112.12451172 57.81225586 C-109.95942929 56.56314482 -107.79439018 55.31395871 -105.62939453 54.06469727 C-100.18884294 50.92547691 -94.74752784 47.78759437 -89.3046875 44.65234375 C-79.83617812 39.19657145 -70.37085052 33.73634089 -60.93847656 28.21826172 C-56.99346571 25.91143334 -53.04376929 23.61269244 -49.09375 21.31445312 C-46.81554623 19.98596173 -44.53948457 18.65423678 -42.265625 17.31835938 C-39.12996114 15.47674534 -35.98801531 13.64624691 -32.84222412 11.82199097 C-31.63321639 11.11846887 -30.42630638 10.41132681 -29.22174072 9.70022583 C-19.69028527 4.07779841 -11.18292379 0.01143448 0 0 Z " fill="#DDE1E1" transform="translate(255.875,15.5625)"/>
<path d="M0 0 C0.7940625 0.28875 1.588125 0.5775 2.40625 0.875 C7.04058708 2.81173788 9.78636103 5.37234248 12.21875 9.78515625 C14.0499504 14.97660939 12.71795856 19.37678934 10.5625 24.25 C3.23302424 32.11577886 -8.20522294 34.5430194 -18.54296875 35.23828125 C-30.92887146 35.49051292 -41.33884037 33.07215311 -51 25 C-54.39901373 21.29198502 -54.64609435 17.37535984 -54.46484375 12.49609375 C-53.64800636 8.10988288 -51.45870547 5.69545238 -48 3 C-33.32573781 -6.33590961 -15.82404028 -6.26005989 0 0 Z " fill="#303442" transform="translate(277,117)"/>
<path d="M0 0 C3.94509734 3.38151201 5.07952714 6.55773106 5.5 11.6875 C4.90103755 24.36154541 -0.22944256 35.4170248 -9.58984375 44.02734375 C-14.6987335 48.2742767 -18.91803061 50.59057946 -25.73046875 50.265625 C-28.94973766 49.66163459 -30.6303388 48.25553949 -32.8125 45.875 C-36.04890502 40.68757067 -35.44540749 34.75386234 -34.8125 28.875 C-31.42516221 16.82305569 -23.6294734 6.12441191 -12.78515625 -0.33203125 C-8.46126039 -2.07015176 -4.20621155 -1.68248462 0 0 Z " fill="#2E3340" transform="translate(337.8125,362.125)"/>
<path d="M0 0 C2.93423195 1.79646854 4.47205355 2.9441071 6 6 C7.1364684 19.60515027 4.8601128 30.26473931 -4.10546875 41.02734375 C-9.12460519 46.25345489 -14.64348509 50.54619636 -22 51.3125 C-25.5162656 50.94622233 -27.22445466 50.17542743 -30 48 C-34.30941676 42.11498535 -33.78274807 36.00781051 -33 29 C-29.77146089 17.34138654 -22.48313319 7.14129284 -12.06640625 0.828125 C-8.16432453 -0.73565822 -4.11906957 -0.55987353 0 0 Z " fill="#2E3240" transform="translate(336,270)"/>
<path d="M0 0 C10.67822844 5.01647769 17.59313902 13.76571796 21.87890625 24.69140625 C23.63979878 30.79950222 24.44029119 38.37815955 22.14453125 44.41015625 C20.4345675 47.09348398 18.58997008 48.55069703 15.94140625 50.31640625 C9.49384196 51.22132755 5.72552106 49.69089992 0.328125 46.13671875 C-7.90507538 39.85738753 -12.8094347 31.06388341 -16.05859375 21.31640625 C-16.23257581 18.67530148 -16.3353839 16.08393513 -16.37109375 13.44140625 C-16.40009766 12.73371094 -16.42910156 12.02601563 -16.45898438 11.296875 C-16.50400911 7.57713913 -16.19423228 5.52727523 -14.1640625 2.37109375 C-10.1272758 -1.56833075 -5.22356544 -1.73458055 0 0 Z " fill="#2E3340" transform="translate(194.05859375,377.68359375)"/>
<path d="M0 0 C11.25633093 4.96227231 17.23584894 15.20871823 22 26 C24.06112315 32.18336944 23.82846032 39.47101586 21.8125 45.625 C19.63886673 48.47320911 18.3844195 49.74923627 15 51 C9.19911838 51.70171955 5.12100444 49.78300301 0.375 46.5625 C-7.98342843 39.99265835 -13.7194402 31.45256576 -16 21 C-17.26090532 7.67452332 -17.26090532 7.67452332 -13 2 C-8.69519283 -0.86987145 -5.04913591 -0.82075939 0 0 Z " fill="#2E3340" transform="translate(98,208)"/>
<path d="M0 0 C3.70654545 1.68479339 5.9184884 3.51522215 8 7 C9.73261222 19.01277809 6.78254375 29.11117833 -0.3125 38.875 C-5.69496848 45.33630748 -11.97145787 50.46122763 -20.5 51.375 C-24.64624123 50.93075987 -26.12207451 49.96015193 -29 47 C-32.53087084 41.30105057 -31.65693819 34.26390176 -30.3828125 27.93359375 C-26.88444245 16.06080689 -19.74887273 6.90749148 -8.98046875 0.8671875 C-5.89062014 -0.48576396 -3.32663694 -0.29181026 0 0 Z " fill="#2D323F" transform="translate(414,315)"/>
<path d="M0 0 C11.53312301 5.08814251 17.24870748 14.98587507 22.375 25.9375 C23.74643626 32.65753766 24.06337861 39.74425843 21 46 C18.18851284 49.15227348 15.88701925 50.31454306 11.75 50.625 C4.09234056 50.23132265 -1.16846607 45.11331213 -6.25 39.8125 C-13.79186844 30.94591216 -16.56803694 21.07749128 -16.359375 9.62890625 C-16.02125855 6.2146651 -15.77689937 4.70095013 -13.625 2.125 C-8.95756627 -1.65339873 -5.71631187 -1.31914889 0 0 Z " fill="#2E323F" transform="translate(146,293)"/>
<path d="M0 0 C2.82424288 2.19022918 4.41508603 3.83017207 6 7 C7.13179085 19.59813097 4.1098268 30.23256025 -4 40 C-14.14516767 50.23338652 -14.14516767 50.23338652 -21.9375 50.4375 C-25.87624085 50.36778777 -26.78095132 50.1654041 -30.0625 47.6875 C-34.11560348 42.06545324 -33.51235112 35.54396649 -32.76171875 28.88671875 C-30.36584397 17.19775392 -22.64152521 7.66319855 -13.0625 0.9375 C-8.65043901 -0.41313091 -4.56165451 -0.83630333 0 0 Z " fill="#2D323F" transform="translate(416,224)"/>
</svg>
